M48
; DRILL file {KiCad (5.1.4)-1} date 29/01/2023 1:10:27 PM
; FORMAT={-:-/ absolute / metric / decimal}
; #@! TF.CreationDate,2023-01-29T13:10:27+10:30
; #@! TF.GenerationSoftware,Kicad,Pcbnew,(5.1.4)-1
FMAT,2
METRIC
T1C0.635
T2C0.800
T3C1.000
T4C4.000
%
G90
G05
T1
X184.785Y-125.73
X187.325Y-125.73
X189.865Y-123.19
X192.405Y-125.73
X196.215Y-127.0
X198.755Y-125.73
X200.025Y-127.0
X201.295Y-192.405
X202.565Y-192.405
X203.835Y-192.405
X205.74Y-197.485
X207.645Y-192.405
X207.645Y-193.675
X209.55Y-197.485
X211.455Y-133.35
X211.455Y-182.88
X212.725Y-195.58
X212.725Y-196.85
X214.63Y-197.485
X234.315Y-132.08
X234.315Y-182.88
X247.015Y-132.715
X247.015Y-182.88
X249.555Y-132.715
X249.555Y-182.88
X252.095Y-132.715
X252.095Y-182.88
X254.635Y-132.715
X254.635Y-182.88
X257.175Y-132.715
X257.175Y-182.88
X259.715Y-184.785
X262.255Y-184.785
X278.765Y-195.58
X278.765Y-196.85
X280.67Y-196.85
X283.845Y-192.405
X283.845Y-193.675
X285.75Y-197.485
X287.655Y-192.405
X288.925Y-192.405
X290.195Y-192.405
T2
X299.72Y-88.9
X304.72Y-88.9
X125.81Y-180.34
X130.81Y-180.34
X125.81Y-134.62
X130.81Y-134.62
X299.72Y-180.34
X304.72Y-180.34
X299.72Y-134.62
X304.72Y-134.62
X125.81Y-88.9
X130.81Y-88.9
T3
X207.645Y-73.66
X207.645Y-76.2
X210.185Y-73.66
X210.185Y-76.2
X212.725Y-73.66
X212.725Y-76.2
X215.265Y-73.66
X215.265Y-76.2
X217.805Y-73.66
X217.805Y-76.2
X220.345Y-73.66
X220.345Y-76.2
X222.885Y-73.66
X222.885Y-76.2
X225.425Y-73.66
X225.425Y-76.2
X227.965Y-73.66
X227.965Y-76.2
X230.505Y-73.66
X230.505Y-76.2
X233.045Y-73.66
X233.045Y-76.2
X235.585Y-73.66
X235.585Y-76.2
X238.125Y-73.66
X238.125Y-76.2
X240.665Y-73.66
X240.665Y-76.2
X243.205Y-73.66
X243.205Y-76.2
X245.745Y-73.66
X245.745Y-76.2
X248.285Y-73.66
X248.285Y-76.2
X250.825Y-73.66
X250.825Y-76.2
X253.365Y-73.66
X253.365Y-76.2
X255.905Y-73.66
X255.905Y-76.2
X301.625Y-82.55
X301.625Y-85.09
X304.165Y-82.55
X304.165Y-85.09
X184.785Y-73.66
X184.785Y-76.2
X187.325Y-73.66
X187.325Y-76.2
X189.865Y-73.66
X189.865Y-76.2
X192.405Y-73.66
X192.405Y-76.2
X194.945Y-73.66
X194.945Y-76.2
X197.485Y-73.66
X197.485Y-76.2
X200.025Y-73.66
X200.025Y-76.2
X126.365Y-173.99
X126.365Y-176.53
X128.905Y-173.99
X128.905Y-176.53
X207.645Y-187.96
X207.645Y-190.5
X210.185Y-187.96
X210.185Y-190.5
X212.725Y-187.96
X212.725Y-190.5
X215.265Y-187.96
X215.265Y-190.5
X217.805Y-187.96
X217.805Y-190.5
X220.345Y-187.96
X220.345Y-190.5
X222.885Y-187.96
X222.885Y-190.5
X225.425Y-187.96
X225.425Y-190.5
X227.965Y-187.96
X227.965Y-190.5
X230.505Y-187.96
X230.505Y-190.5
X233.045Y-187.96
X233.045Y-190.5
X235.585Y-187.96
X235.585Y-190.5
X238.125Y-187.96
X238.125Y-190.5
X240.665Y-187.96
X240.665Y-190.5
X243.205Y-187.96
X243.205Y-190.5
X245.745Y-187.96
X245.745Y-190.5
X248.285Y-187.96
X248.285Y-190.5
X250.825Y-187.96
X250.825Y-190.5
X253.365Y-187.96
X253.365Y-190.5
X255.905Y-187.96
X255.905Y-190.5
X258.445Y-187.96
X258.445Y-190.5
X260.985Y-187.96
X260.985Y-190.5
X263.525Y-187.96
X263.525Y-190.5
X266.065Y-187.96
X266.065Y-190.5
X268.605Y-187.96
X268.605Y-190.5
X271.145Y-187.96
X271.145Y-190.5
X273.685Y-187.96
X273.685Y-190.5
X276.225Y-187.96
X276.225Y-190.5
X278.765Y-187.96
X278.765Y-190.5
X281.305Y-187.96
X281.305Y-190.5
X283.845Y-187.96
X283.845Y-190.5
X301.625Y-128.27
X301.625Y-130.81
X304.165Y-128.27
X304.165Y-130.81
X126.365Y-128.27
X126.365Y-130.81
X128.905Y-128.27
X128.905Y-130.81
X301.625Y-173.99
X301.625Y-176.53
X304.165Y-173.99
X304.165Y-176.53
X126.365Y-82.55
X126.365Y-85.09
X128.905Y-82.55
X128.905Y-85.09
X263.525Y-73.66
X263.525Y-76.2
X266.065Y-73.66
X266.065Y-76.2
X268.605Y-73.66
X268.605Y-76.2
X271.145Y-73.66
X271.145Y-76.2
X273.685Y-73.66
X273.685Y-76.2
X276.225Y-73.66
X276.225Y-76.2
X278.765Y-73.66
X278.765Y-76.2
X281.305Y-73.66
X281.305Y-76.2
T4
X127.635Y-143.51
X127.635Y-106.68
X127.635Y-115.57
X127.635Y-161.29
X127.635Y-97.79
X127.635Y-152.4
X302.895Y-106.68
X302.895Y-97.79
X302.895Y-143.51
X302.895Y-161.29
X302.895Y-115.57
X302.895Y-152.4
T0
M30
