G04 #@! TF.GenerationSoftware,KiCad,Pcbnew,(5.1.4)-1*
G04 #@! TF.CreationDate,2023-01-29T13:09:45+10:30*
G04 #@! TF.ProjectId,ISA_Bread_Board_v1-1,4953415f-4272-4656-9164-5f426f617264,1*
G04 #@! TF.SameCoordinates,Original*
G04 #@! TF.FileFunction,Copper,L1,Top*
G04 #@! TF.FilePolarity,Positive*
%FSLAX46Y46*%
G04 Gerber Fmt 4.6, Leading zero omitted, Abs format (unit mm)*
G04 Created by KiCad (PCBNEW (5.1.4)-1) date 2023-01-29 13:09:45*
%MOMM*%
%LPD*%
G04 APERTURE LIST*
%ADD10R,1.780000X7.366000*%
%ADD11O,1.700000X1.700000*%
%ADD12R,1.700000X1.700000*%
%ADD13C,1.600000*%
%ADD14C,1.270000*%
%ADD15C,0.317500*%
%ADD16C,1.270000*%
G04 APERTURE END LIST*
D10*
X255905000Y-203073000D03*
X253365000Y-203073000D03*
X250825000Y-203073000D03*
X248285000Y-203073000D03*
X245745000Y-203073000D03*
X243205000Y-203073000D03*
X240665000Y-203073000D03*
X238125000Y-203073000D03*
X235585000Y-203073000D03*
X233045000Y-203073000D03*
X230505000Y-203073000D03*
X227965000Y-203073000D03*
X225425000Y-203073000D03*
X222885000Y-203073000D03*
X220345000Y-203073000D03*
X217805000Y-203073000D03*
X215265000Y-203073000D03*
X212725000Y-203073000D03*
X210185000Y-203073000D03*
X207645000Y-203073000D03*
X283845000Y-203073000D03*
X281305000Y-203073000D03*
X278765000Y-203073000D03*
X276225000Y-203073000D03*
X273685000Y-203073000D03*
X271145000Y-203073000D03*
X268605000Y-203073000D03*
X266065000Y-203073000D03*
X263525000Y-203073000D03*
X260985000Y-203073000D03*
X258445000Y-203073000D03*
D11*
X184785000Y-73660000D03*
X184785000Y-76200000D03*
X187325000Y-73660000D03*
X187325000Y-76200000D03*
X189865000Y-73660000D03*
X189865000Y-76200000D03*
X192405000Y-73660000D03*
X192405000Y-76200000D03*
X194945000Y-73660000D03*
X194945000Y-76200000D03*
X197485000Y-73660000D03*
X197485000Y-76200000D03*
X200025000Y-73660000D03*
D12*
X200025000Y-76200000D03*
D11*
X263525000Y-73660000D03*
X263525000Y-76200000D03*
X266065000Y-73660000D03*
X266065000Y-76200000D03*
X268605000Y-73660000D03*
X268605000Y-76200000D03*
X271145000Y-73660000D03*
X271145000Y-76200000D03*
X273685000Y-73660000D03*
X273685000Y-76200000D03*
X276225000Y-73660000D03*
X276225000Y-76200000D03*
X278765000Y-73660000D03*
X278765000Y-76200000D03*
X281305000Y-73660000D03*
D12*
X281305000Y-76200000D03*
D11*
X207645000Y-187960000D03*
X207645000Y-190500000D03*
X210185000Y-187960000D03*
X210185000Y-190500000D03*
X212725000Y-187960000D03*
X212725000Y-190500000D03*
X215265000Y-187960000D03*
X215265000Y-190500000D03*
X217805000Y-187960000D03*
X217805000Y-190500000D03*
X220345000Y-187960000D03*
X220345000Y-190500000D03*
X222885000Y-187960000D03*
X222885000Y-190500000D03*
X225425000Y-187960000D03*
X225425000Y-190500000D03*
X227965000Y-187960000D03*
X227965000Y-190500000D03*
X230505000Y-187960000D03*
X230505000Y-190500000D03*
X233045000Y-187960000D03*
X233045000Y-190500000D03*
X235585000Y-187960000D03*
X235585000Y-190500000D03*
X238125000Y-187960000D03*
X238125000Y-190500000D03*
X240665000Y-187960000D03*
X240665000Y-190500000D03*
X243205000Y-187960000D03*
X243205000Y-190500000D03*
X245745000Y-187960000D03*
X245745000Y-190500000D03*
X248285000Y-187960000D03*
X248285000Y-190500000D03*
X250825000Y-187960000D03*
X250825000Y-190500000D03*
X253365000Y-187960000D03*
X253365000Y-190500000D03*
X255905000Y-187960000D03*
X255905000Y-190500000D03*
X258445000Y-187960000D03*
X258445000Y-190500000D03*
X260985000Y-187960000D03*
X260985000Y-190500000D03*
X263525000Y-187960000D03*
X263525000Y-190500000D03*
X266065000Y-187960000D03*
X266065000Y-190500000D03*
X268605000Y-187960000D03*
X268605000Y-190500000D03*
X271145000Y-187960000D03*
X271145000Y-190500000D03*
X273685000Y-187960000D03*
X273685000Y-190500000D03*
X276225000Y-187960000D03*
X276225000Y-190500000D03*
X278765000Y-187960000D03*
X278765000Y-190500000D03*
X281305000Y-187960000D03*
X281305000Y-190500000D03*
X283845000Y-187960000D03*
D12*
X283845000Y-190500000D03*
D11*
X207645000Y-73660000D03*
X207645000Y-76200000D03*
X210185000Y-73660000D03*
X210185000Y-76200000D03*
X212725000Y-73660000D03*
X212725000Y-76200000D03*
X215265000Y-73660000D03*
X215265000Y-76200000D03*
X217805000Y-73660000D03*
X217805000Y-76200000D03*
X220345000Y-73660000D03*
X220345000Y-76200000D03*
X222885000Y-73660000D03*
X222885000Y-76200000D03*
X225425000Y-73660000D03*
X225425000Y-76200000D03*
X227965000Y-73660000D03*
X227965000Y-76200000D03*
X230505000Y-73660000D03*
X230505000Y-76200000D03*
X233045000Y-73660000D03*
X233045000Y-76200000D03*
X235585000Y-73660000D03*
X235585000Y-76200000D03*
X238125000Y-73660000D03*
X238125000Y-76200000D03*
X240665000Y-73660000D03*
X240665000Y-76200000D03*
X243205000Y-73660000D03*
X243205000Y-76200000D03*
X245745000Y-73660000D03*
X245745000Y-76200000D03*
X248285000Y-73660000D03*
X248285000Y-76200000D03*
X250825000Y-73660000D03*
X250825000Y-76200000D03*
X253365000Y-73660000D03*
X253365000Y-76200000D03*
X255905000Y-73660000D03*
D12*
X255905000Y-76200000D03*
D11*
X301625000Y-173990000D03*
X301625000Y-176530000D03*
X304165000Y-173990000D03*
D12*
X304165000Y-176530000D03*
D11*
X301625000Y-128270000D03*
X301625000Y-130810000D03*
X304165000Y-128270000D03*
D12*
X304165000Y-130810000D03*
D11*
X301625000Y-82550000D03*
X301625000Y-85090000D03*
X304165000Y-82550000D03*
D12*
X304165000Y-85090000D03*
D11*
X126365000Y-82550000D03*
X126365000Y-85090000D03*
X128905000Y-82550000D03*
D12*
X128905000Y-85090000D03*
D11*
X126365000Y-128270000D03*
X126365000Y-130810000D03*
X128905000Y-128270000D03*
D12*
X128905000Y-130810000D03*
D11*
X126365000Y-173990000D03*
X126365000Y-176530000D03*
X128905000Y-173990000D03*
D12*
X128905000Y-176530000D03*
D13*
X304720000Y-134620000D03*
X299720000Y-134620000D03*
X125810000Y-134620000D03*
X130810000Y-134620000D03*
X299720000Y-88900000D03*
X304720000Y-88900000D03*
X125810000Y-88900000D03*
X130810000Y-88900000D03*
X304720000Y-180340000D03*
X299720000Y-180340000D03*
X125810000Y-180340000D03*
X130810000Y-180340000D03*
D14*
X257175000Y-182880000D03*
X189865000Y-123190000D03*
X257175000Y-132715000D03*
X280670000Y-196850000D03*
X285750000Y-197484994D03*
X283845000Y-193675000D03*
X290195000Y-192405000D03*
X288925000Y-192405000D03*
X287655000Y-192405000D03*
X207645000Y-192405000D03*
X207645000Y-193675000D03*
X203835000Y-192405000D03*
X202565000Y-192405000D03*
X201295000Y-192405000D03*
X262255000Y-184785000D03*
X283845000Y-192405000D03*
X259715000Y-184785000D03*
X211455000Y-182880000D03*
X211455000Y-133350000D03*
X184785000Y-125729992D03*
X278765000Y-196850000D03*
X278765000Y-195580000D03*
X212725000Y-196850000D03*
X212725000Y-195580000D03*
X234315000Y-182880000D03*
X234315000Y-132080000D03*
X187325000Y-125730000D03*
X247015000Y-182880000D03*
X196215000Y-126999978D03*
X247015000Y-132715000D03*
X249555000Y-182880000D03*
X192405000Y-125730000D03*
X249555000Y-132715000D03*
X252095000Y-182880000D03*
X200025000Y-127000000D03*
X252095000Y-132715000D03*
X254635000Y-182880000D03*
X198755000Y-125730000D03*
X254635000Y-132715000D03*
X205740000Y-197485000D03*
X209550000Y-197485000D03*
X214630000Y-197485000D03*
D15*
X258445000Y-203200000D02*
X258445000Y-193040000D01*
X258445000Y-193040000D02*
X257175000Y-191770000D01*
X257175000Y-191770000D02*
X257175000Y-189230000D01*
X257175000Y-189230000D02*
X258445000Y-187960000D01*
X189865000Y-73660000D02*
X189865000Y-76200000D01*
X189865000Y-76200000D02*
X189865000Y-123190000D01*
X257175000Y-182880000D02*
X257175000Y-132715000D01*
X260985000Y-203200000D02*
X260985000Y-193040000D01*
X260985000Y-193040000D02*
X259715000Y-191770000D01*
X259715000Y-191770000D02*
X259715000Y-189230000D01*
X259715000Y-189230000D02*
X260985000Y-187960000D01*
X263525000Y-187960000D02*
X263525000Y-76200000D01*
X263525000Y-203200000D02*
X263525000Y-193040000D01*
X263525000Y-193040000D02*
X262255000Y-191770000D01*
X262255000Y-191770000D02*
X262255000Y-189230000D01*
X262255000Y-189230000D02*
X263525000Y-187960000D01*
X263525000Y-73660000D02*
X263525000Y-76200000D01*
X266065000Y-187960000D02*
X266065000Y-76200000D01*
X266065000Y-203200000D02*
X266065000Y-193040000D01*
X266065000Y-193040000D02*
X264795000Y-191770000D01*
X264795000Y-191770000D02*
X264795000Y-189230000D01*
X264795000Y-189230000D02*
X266065000Y-187960000D01*
X266065000Y-73660000D02*
X266065000Y-76200000D01*
X268605000Y-187960000D02*
X268605000Y-76200000D01*
X268605000Y-203200000D02*
X268605000Y-193040000D01*
X268605000Y-193040000D02*
X267335000Y-191770000D01*
X267335000Y-191770000D02*
X267335000Y-189230000D01*
X267335000Y-189230000D02*
X268605000Y-187960000D01*
X268605000Y-73660000D02*
X268605000Y-76200000D01*
X271145000Y-187960000D02*
X271145000Y-76200000D01*
X271145000Y-203200000D02*
X271145000Y-193040000D01*
X271145000Y-193040000D02*
X269875000Y-191770000D01*
X269875000Y-191770000D02*
X269875000Y-189230000D01*
X269875000Y-189230000D02*
X271145000Y-187960000D01*
X271145000Y-73660000D02*
X271145000Y-76200000D01*
X273685000Y-187960000D02*
X273685000Y-76200000D01*
X273685000Y-203200000D02*
X273685000Y-193040000D01*
X273685000Y-193040000D02*
X272415000Y-191770000D01*
X272415000Y-191770000D02*
X272415000Y-189230000D01*
X272415000Y-189230000D02*
X273685000Y-187960000D01*
X273685000Y-73660000D02*
X273685000Y-76200000D01*
X276225000Y-187960000D02*
X276225000Y-76200000D01*
X276225000Y-203200000D02*
X276225000Y-193040000D01*
X276225000Y-193040000D02*
X274955000Y-191770000D01*
X274955000Y-191770000D02*
X274955000Y-189230000D01*
X274955000Y-189230000D02*
X276225000Y-187960000D01*
X276225000Y-73660000D02*
X276225000Y-76200000D01*
X278765000Y-187960000D02*
X278765000Y-76200000D01*
X277495000Y-189230000D02*
X278765000Y-187960000D01*
X277495000Y-197485000D02*
X277495000Y-189230000D01*
X278765000Y-203200000D02*
X278765000Y-198755000D01*
X278765000Y-198755000D02*
X277495000Y-197485000D01*
X278765000Y-73660000D02*
X278765000Y-76200000D01*
X280670000Y-202565000D02*
X280670000Y-197748025D01*
X281305000Y-203200000D02*
X280670000Y-202565000D01*
X280670000Y-197748025D02*
X280670000Y-196850000D01*
X281305000Y-187960000D02*
X281305000Y-76200000D01*
X281305000Y-73660000D02*
X281305000Y-76200000D01*
X285115006Y-197484994D02*
X285750000Y-197484994D01*
X283845000Y-203200000D02*
X283845000Y-198755000D01*
X283845000Y-198755000D02*
X285115006Y-197484994D01*
D16*
X283845000Y-192405000D02*
X287655000Y-192405000D01*
X290195000Y-192405000D02*
X290195000Y-192405000D01*
X288925000Y-192405000D02*
X290195000Y-192405000D01*
X287655000Y-192405000D02*
X288925000Y-192405000D01*
X207645000Y-193675000D02*
X207645000Y-192405000D01*
X207645000Y-192405000D02*
X203835000Y-192405000D01*
X203835000Y-192405000D02*
X202565000Y-192405000D01*
X202565000Y-192405000D02*
X201295000Y-192405000D01*
X283845000Y-193675000D02*
X283845000Y-192405000D01*
D15*
X211455000Y-182880000D02*
X211455000Y-133350000D01*
X184785000Y-73660000D02*
X184785000Y-76200000D01*
X184785000Y-76200000D02*
X184785000Y-125729992D01*
D16*
X278765000Y-196850000D02*
X278765000Y-195580000D01*
X278765000Y-193040000D02*
X278765000Y-190500000D01*
X278765000Y-195580000D02*
X278765000Y-193040000D01*
X212725000Y-195580000D02*
X212725000Y-196850000D01*
X212725000Y-193040000D02*
X212725000Y-195580000D01*
X212725000Y-190500000D02*
X212725000Y-193040000D01*
X304165000Y-85090000D02*
X307340000Y-85090000D01*
X304165000Y-130810000D02*
X307340000Y-130810000D01*
X307340000Y-131445000D02*
X307340000Y-177165000D01*
X307340000Y-85090000D02*
X307340000Y-131445000D01*
X307340000Y-176530000D02*
X304165000Y-176530000D01*
X307340000Y-177165000D02*
X307340000Y-176530000D01*
X123190000Y-176530000D02*
X126365000Y-176530000D01*
X128905000Y-176530000D02*
X126365000Y-176530000D01*
X123190000Y-176530000D02*
X123190000Y-130810000D01*
X123190000Y-130810000D02*
X126365000Y-130810000D01*
X128905000Y-130810000D02*
X126365000Y-130810000D01*
X123190000Y-71755000D02*
X126365000Y-68580000D01*
X123190000Y-85090000D02*
X126365000Y-85090000D01*
X123190000Y-85090000D02*
X123190000Y-71755000D01*
X123190000Y-130810000D02*
X123190000Y-85090000D01*
X126365000Y-85090000D02*
X128905000Y-85090000D01*
X212725000Y-195580000D02*
X203200000Y-195580000D01*
X203200000Y-195580000D02*
X201295000Y-197485000D01*
X301625000Y-85090000D02*
X304165000Y-85090000D01*
X304165000Y-130810000D02*
X301625000Y-130810000D01*
X301625000Y-176530000D02*
X304165000Y-176530000D01*
X123190000Y-194310000D02*
X123190000Y-176530000D01*
X201295000Y-197485000D02*
X126365000Y-197485000D01*
X126365000Y-197485000D02*
X123190000Y-194310000D01*
X307340000Y-71755000D02*
X307340000Y-85090000D01*
X126365000Y-68580000D02*
X304165000Y-68580000D01*
X304165000Y-68580000D02*
X307340000Y-71755000D01*
X128905000Y-86995000D02*
X128905000Y-85090000D01*
X130810000Y-88900000D02*
X128905000Y-86995000D01*
X128905000Y-132715000D02*
X130810000Y-134620000D01*
X128905000Y-130810000D02*
X128905000Y-132715000D01*
X128905000Y-178435000D02*
X130810000Y-180340000D01*
X128905000Y-176530000D02*
X128905000Y-178435000D01*
X301625000Y-178435000D02*
X301625000Y-176530000D01*
X299720000Y-180340000D02*
X301625000Y-178435000D01*
X301625000Y-132715000D02*
X299720000Y-134620000D01*
X301625000Y-130810000D02*
X301625000Y-132715000D01*
X301625000Y-86995000D02*
X301625000Y-85090000D01*
X299720000Y-88900000D02*
X301625000Y-86995000D01*
X281940000Y-194945000D02*
X278765000Y-194945000D01*
X307340000Y-194945000D02*
X304800000Y-197485000D01*
X307340000Y-177165000D02*
X307340000Y-194945000D01*
X304800000Y-197485000D02*
X288607500Y-197485000D01*
X288607500Y-197485000D02*
X286702500Y-195580000D01*
X286702500Y-195580000D02*
X282575000Y-195580000D01*
X282575000Y-195580000D02*
X281940000Y-194945000D01*
D15*
X234315000Y-182880000D02*
X234315000Y-132080000D01*
X187325000Y-73660000D02*
X187325000Y-76200000D01*
X187325000Y-76200000D02*
X187325000Y-125730000D01*
X194945000Y-73660000D02*
X194945000Y-76200000D01*
X247015000Y-182880000D02*
X247015000Y-132715000D01*
X194945000Y-125729978D02*
X196215000Y-126999978D01*
X194945000Y-76200000D02*
X194945000Y-125729978D01*
X192405000Y-73660000D02*
X192405000Y-76200000D01*
X192405000Y-76200000D02*
X192405000Y-125730000D01*
X249555000Y-182880000D02*
X249555000Y-132715000D01*
X200025000Y-73660000D02*
X200025000Y-76200000D01*
X200025000Y-76200000D02*
X200025000Y-127000000D01*
X252095000Y-182880000D02*
X252095000Y-132715000D01*
X197485000Y-73660000D02*
X197485000Y-76200000D01*
X197485000Y-124460000D02*
X198120001Y-125095001D01*
X197485000Y-76200000D02*
X197485000Y-124460000D01*
X198120001Y-125095001D02*
X198755000Y-125730000D01*
X254635000Y-182880000D02*
X254635000Y-132715000D01*
X207645000Y-198755000D02*
X206375000Y-197485000D01*
X207645000Y-203200000D02*
X207645000Y-198755000D01*
X206375000Y-197485000D02*
X205740000Y-197485000D01*
X207645000Y-73660000D02*
X207645000Y-76200000D01*
X207645000Y-187960000D02*
X207645000Y-76200000D01*
X210185000Y-198120000D02*
X209550000Y-197485000D01*
X210185000Y-203200000D02*
X210185000Y-198120000D01*
X209550000Y-197485000D02*
X209550000Y-197485000D01*
X210185000Y-73660000D02*
X210185000Y-76200000D01*
X210185000Y-187960000D02*
X210185000Y-76200000D01*
X213995000Y-197485000D02*
X214630000Y-197485000D01*
X212725000Y-203200000D02*
X212725000Y-198755000D01*
X212725000Y-198755000D02*
X213995000Y-197485000D01*
X214630000Y-197485000D02*
X214630000Y-197485000D01*
X212725000Y-73660000D02*
X212725000Y-76200000D01*
X212725000Y-187960000D02*
X212725000Y-76200000D01*
X213995000Y-189230000D02*
X215265000Y-187960000D01*
X213995000Y-191770000D02*
X213995000Y-189230000D01*
X216535000Y-194310000D02*
X213995000Y-191770000D01*
X216535000Y-197485000D02*
X216535000Y-194310000D01*
X215265000Y-203200000D02*
X215265000Y-198755000D01*
X215265000Y-198755000D02*
X216535000Y-197485000D01*
X215265000Y-73660000D02*
X215265000Y-76200000D01*
X215265000Y-187960000D02*
X215265000Y-76200000D01*
X217805000Y-203200000D02*
X217805000Y-193040000D01*
X217805000Y-193040000D02*
X216535000Y-191770000D01*
X216535000Y-191770000D02*
X216535000Y-189230000D01*
X216535000Y-189230000D02*
X217805000Y-187960000D01*
X217805000Y-73660000D02*
X217805000Y-76200000D01*
X217805000Y-187960000D02*
X217805000Y-76200000D01*
X220345000Y-203200000D02*
X220345000Y-193040000D01*
X220345000Y-193040000D02*
X219075000Y-191770000D01*
X219075000Y-191770000D02*
X219075000Y-189230000D01*
X219075000Y-189230000D02*
X220345000Y-187960000D01*
X220345000Y-73660000D02*
X220345000Y-76200000D01*
X220345000Y-187960000D02*
X220345000Y-76200000D01*
X222885000Y-203200000D02*
X222885000Y-193040000D01*
X222885000Y-193040000D02*
X221615000Y-191770000D01*
X221615000Y-191770000D02*
X221615000Y-189230000D01*
X221615000Y-189230000D02*
X222885000Y-187960000D01*
X222885000Y-73660000D02*
X222885000Y-76200000D01*
X222885000Y-187960000D02*
X222885000Y-76200000D01*
X225425000Y-203200000D02*
X225425000Y-193040000D01*
X225425000Y-193040000D02*
X224155000Y-191770000D01*
X224155000Y-191770000D02*
X224155000Y-189230000D01*
X224155000Y-189230000D02*
X225425000Y-187960000D01*
X225425000Y-73660000D02*
X225425000Y-76200000D01*
X225425000Y-187960000D02*
X225425000Y-76200000D01*
X227965000Y-203200000D02*
X227965000Y-193040000D01*
X227965000Y-193040000D02*
X226695000Y-191770000D01*
X226695000Y-191770000D02*
X226695000Y-189230000D01*
X226695000Y-189230000D02*
X227965000Y-187960000D01*
X227965000Y-73660000D02*
X227965000Y-76200000D01*
X227965000Y-187960000D02*
X227965000Y-76200000D01*
X230505000Y-203200000D02*
X230505000Y-193040000D01*
X230505000Y-193040000D02*
X229235000Y-191770000D01*
X229235000Y-191770000D02*
X229235000Y-189230000D01*
X229235000Y-189230000D02*
X230505000Y-187960000D01*
X230505000Y-73660000D02*
X230505000Y-76200000D01*
X230505000Y-187960000D02*
X230505000Y-76200000D01*
X233045000Y-203200000D02*
X233045000Y-193040000D01*
X233045000Y-193040000D02*
X231775000Y-191770000D01*
X231775000Y-191770000D02*
X231775000Y-189230000D01*
X231775000Y-189230000D02*
X233045000Y-187960000D01*
X233045000Y-73660000D02*
X233045000Y-76200000D01*
X233045000Y-187960000D02*
X233045000Y-76200000D01*
X235585000Y-203200000D02*
X235585000Y-193040000D01*
X235585000Y-193040000D02*
X234315000Y-191770000D01*
X234315000Y-191770000D02*
X234315000Y-189230000D01*
X234315000Y-189230000D02*
X235585000Y-187960000D01*
X235585000Y-73660000D02*
X235585000Y-76200000D01*
X235585000Y-187960000D02*
X235585000Y-76200000D01*
X238125000Y-203200000D02*
X238125000Y-193040000D01*
X238125000Y-193040000D02*
X236855000Y-191770000D01*
X236855000Y-191770000D02*
X236855000Y-189230000D01*
X236855000Y-189230000D02*
X238125000Y-187960000D01*
X238125000Y-73660000D02*
X238125000Y-76200000D01*
X238125000Y-187960000D02*
X238125000Y-76200000D01*
X240665000Y-203200000D02*
X240665000Y-193040000D01*
X240665000Y-193040000D02*
X239395000Y-191770000D01*
X239395000Y-191770000D02*
X239395000Y-189230000D01*
X239395000Y-189230000D02*
X240665000Y-187960000D01*
X240665000Y-73660000D02*
X240665000Y-76200000D01*
X240665000Y-187960000D02*
X240665000Y-76200000D01*
X243205000Y-203200000D02*
X243205000Y-193040000D01*
X243205000Y-193040000D02*
X241935000Y-191770000D01*
X241935000Y-191770000D02*
X241935000Y-189230000D01*
X241935000Y-189230000D02*
X243205000Y-187960000D01*
X243205000Y-73660000D02*
X243205000Y-76200000D01*
X243205000Y-187960000D02*
X243205000Y-76200000D01*
X245745000Y-203200000D02*
X245745000Y-193040000D01*
X245745000Y-193040000D02*
X244475000Y-191770000D01*
X244475000Y-191770000D02*
X244475000Y-189230000D01*
X244475000Y-189230000D02*
X245745000Y-187960000D01*
X245745000Y-73660000D02*
X245745000Y-76200000D01*
X245745000Y-187960000D02*
X245745000Y-76200000D01*
X248285000Y-203200000D02*
X248285000Y-193040000D01*
X248285000Y-193040000D02*
X247015000Y-191770000D01*
X247015000Y-191770000D02*
X247015000Y-189230000D01*
X247015000Y-189230000D02*
X248285000Y-187960000D01*
X248285000Y-187960000D02*
X248285000Y-76200000D01*
X248285000Y-73660000D02*
X248285000Y-76200000D01*
X250825000Y-203200000D02*
X250825000Y-193040000D01*
X250825000Y-193040000D02*
X249555000Y-191770000D01*
X249555000Y-191770000D02*
X249555000Y-189230000D01*
X249555000Y-189230000D02*
X250825000Y-187960000D01*
X250825000Y-73660000D02*
X250825000Y-76200000D01*
X250825000Y-187960000D02*
X250825000Y-76200000D01*
X253365000Y-203200000D02*
X253365000Y-193040000D01*
X253365000Y-193040000D02*
X252095000Y-191770000D01*
X252095000Y-191770000D02*
X252095000Y-189230000D01*
X252095000Y-189230000D02*
X253365000Y-187960000D01*
X253365000Y-73660000D02*
X253365000Y-76200000D01*
X253365000Y-187960000D02*
X253365000Y-76200000D01*
X255905000Y-203200000D02*
X255905000Y-193040000D01*
X255905000Y-193040000D02*
X254635000Y-191770000D01*
X254635000Y-191770000D02*
X254635000Y-189230000D01*
X254635000Y-189230000D02*
X255905000Y-187960000D01*
X255905000Y-73660000D02*
X255905000Y-76200000D01*
X255905000Y-187960000D02*
X255905000Y-76200000D01*
M02*
